<svg xmlns="http://www.w3.org/2000/svg" viewBox="0 0 48 48" fill="none" aria-hidden="true">
  <defs>
    <linearGradient id="docGrad" x1="8" y1="6" x2="36" y2="42" gradientUnits="userSpaceOnUse">
      <stop stop-color="#209dd7"/>
      <stop offset="1" stop-color="#753991"/>
    </linearGradient>
    <linearGradient id="sparkGrad" x1="28" y1="8" x2="40" y2="20" gradientUnits="userSpaceOnUse">
      <stop stop-color="#ecad0a"/>
      <stop offset="1" stop-color="#209dd7"/>
    </linearGradient>
  </defs>
  <rect x="4" y="4" width="40" height="40" rx="12" fill="#032147"/>
  <path d="M14 12h14a2 2 0 012 2v22a2 2 0 01-2 2H14a2 2 0 01-2-2V14a2 2 0 012-2z" fill="url(#docGrad)" opacity="0.95"/>
  <path d="M18 18h10M18 23h8M18 28h6" stroke="#ffffff" stroke-width="2" stroke-linecap="round"/>
  <path d="M30 10l3 6 6 1-4.5 4.5 1 6.5-5.5-3-5.5 3 1-6.5L21 17l6-1 3-6z" fill="url(#sparkGrad)"/>
</svg>
